# xmcd
#
# Track frame offsets: 
#        150
#        16053
#        44897
#        59484
#        88579
#        106525
#        129264
#        147952
#        178492
#        208026
#        236473
#        268938
#        297288
#
# Disc length: 4412 seconds
#
# Revision: 0
# Processed by: cddbd v1.5.2PL0 Copyright (c) Steve Scherf et al.
# Submitted via: ExactAudioCopy v0.95b4
#
DISCID=c1113a0d
DTITLE=Various Artist - Don´s House Vol 22
DYEAR=1900
DGENRE=
TTITLE0=Toy Box - Best friend
TTITLE1=ATB - 9 pm (sequential one mix)
TTITLE2=Aqua - Barbie girl
TTITLE3=Eiffel 65 - Blue
TTITLE4=Prodigy, The - Breathe
TTITLE5=Tone Loc - Funky Cold Medina (2yk mix)
TTITLE6=Tone Loc - Funky Cold Medina (original)
TTITLE7=Stardust - Music sounds better (extended)
TTITLE8=York - On the beach
TTITLE9=Prodigy, The - No good
TTITLE10=Sunbeam - Outside world
TTITLE11=Vernons World - Wonderer
TTITLE12=Phats and Small - Feel good
EXTD=
EXTT0=
EXTT1=
EXTT2=
EXTT3=
EXTT4=
EXTT5=
EXTT6=
EXTT7=
EXTT8=
EXTT9=
EXTT10=
EXTT11=
EXTT12=
PLAYORDER=
